<svg xmlns="http://www.w3.org/2000/svg" xmlns:xlink="http://www.w3.org/1999/xlink" width="48px" height="48px" viewBox="0 0 48 48" version="1.1">
    <title>icon-warning</title>
    <desc/>
    <defs/>
    <g id="icon-warning" stroke="none" stroke-width="1" fill="none" fill-rule="evenodd">
        <polygon id="Shape" points="0 0 48 0 48 48 0 48"/>
        <path d="M22,30 L26,30 L26,34 L22,34 L22,30 Z M22,14 L26,14 L26,26 L22,26 L22,14 Z M23.98,4 C12.94,4 4,12.96 4,24 C4,35.04 12.94,44 23.98,44 C35.04,44 44,35.04 44,24 C44,12.96 35.04,4 23.98,4 Z M24,40 C15.16,40 8,32.84 8,24 C8,15.16 15.16,8 24,8 C32.84,8 40,15.16 40,24 C40,32.84 32.84,40 24,40 Z" id="Shape" fill="#DF0028" fill-rule="nonzero"/>
    </g>
</svg>