<svg xmlns="http://www.w3.org/2000/svg" width="24" height="24" viewBox="0 0 24 24" fill="none">
<path fill-rule="evenodd" clip-rule="evenodd" d="M12 14.2679L22 5.98049V5.5C22 4.67157 21.3284 4 20.5 4H3.5C2.67157 4 2 4.67157 2 5.5V5.98049L12 14.2679ZM16.7071 11.6657L22 17.454V7.27926L16.7071 11.6657ZM7.29294 11.6657L2 17.4541V7.27926L7.29294 11.6657ZM3.5 20H20.5C21.1963 20 21.7819 19.5255 21.9509 18.8822L16.0409 12.4191L12 15.7679L7.95913 12.4191L2.04913 18.8822C2.21814 19.5255 2.80366 20 3.5 20Z" fill="#6F6F6F"/>
</svg>