<svg data-v-fde0c5aa="" xmlns="http://www.w3.org/2000/svg" viewBox="0 0 300 300" class="iconLeft"><!----><defs data-v-fde0c5aa=""><!----></defs><rect data-v-fde0c5aa="" fill="transparent" x="0" y="0" width="300px" height="300px" class="logo-background-square"></rect><defs data-v-fde0c5aa=""><!----></defs><g data-v-fde0c5aa="" id="f89f919e-2eba-4437-8db4-00f351a5b440" fill="#000000" transform="matrix(3.8030497007630077,0,0,3.8030497007630077,107.53573396927915,119.84181561906838)"><path d="M1.48 3.05L0.30 3.99L0.30 3.99Q0.47 4.34 0.50 4.93L0.50 4.93L0.50 4.93Q0.47 11.40 0.59 11.88L0.59 11.88L0.59 11.88Q0.71 12.37 1.08 12.81L1.08 12.81L2.53 11.46L2.53 11.29L2.53 11.29Q2.07 11.40 1.95 10.78L1.95 10.78L1.95 10.78Q1.83 10.17 1.90 8.27L1.90 8.27L1.90 8.27Q2.91 7.50 3.51 7.73L3.51 7.73L3.51 7.73Q4.12 7.96 4.11 9.39L4.11 9.39L4.11 9.39Q4.07 11.44 4.12 11.93L4.12 11.93L4.12 11.93Q4.17 12.42 4.71 12.78L4.71 12.78L6.09 11.53L6.10 11.35L6.10 11.35Q5.74 11.46 5.63 10.83L5.63 10.83L5.63 10.83Q5.51 10.20 5.58 8.76L5.58 8.76L5.58 8.76Q5.63 7.88 5.43 7.35L5.43 7.35L5.43 7.35Q5.24 6.82 4.62 6.58L4.62 6.58L4.62 6.58Q4.00 6.33 3.47 6.59L3.47 6.59L3.47 6.59Q2.93 6.85 2.59 7.14L2.59 7.14L2.59 7.14Q2.24 7.42 1.93 7.62L1.93 7.62L1.90 3.91L1.90 3.91Q1.81 3.32 1.48 3.05L1.48 3.05ZM7.69 3.68L6.32 4.86L6.32 4.86Q6.96 5.30 7.29 5.91L7.29 5.91L7.29 5.91Q8.44 5.15 8.58 4.96L8.58 4.96L8.58 4.96Q8.72 4.76 8.50 4.31L8.50 4.31L8.50 4.31Q8.29 3.86 7.69 3.68L7.69 3.68ZM6.54 7.76L6.54 7.76Q7.12 7.43 6.92 9.23L6.92 9.23L6.92 9.23Q6.88 11.37 6.93 11.88L6.93 11.88L6.93 11.88Q6.98 12.39 7.54 12.72L7.54 12.72L8.90 11.45L8.91 11.27L8.91 11.27Q8.53 11.29 8.45 10.76L8.45 10.76L8.45 10.76Q8.36 10.23 8.40 8.94L8.40 8.94L8.40 8.94Q8.44 7.65 8.42 7.25L8.42 7.25L8.42 7.25Q8.40 6.85 8.05 6.45L8.05 6.45L6.43 7.57L6.54 7.76ZM10.99 6.42L9.32 7.64L9.47 7.87L9.47 7.87Q9.98 7.56 9.93 8.50L9.93 8.50L9.93 8.50Q9.86 11.46 9.95 11.91L9.95 11.91L9.95 11.91Q10.04 12.37 10.61 12.71L10.61 12.71L12.06 11.46L12.06 11.29L12.06 11.29Q11.60 11.40 11.48 10.78L11.48 10.78L11.48 10.78Q11.35 10.17 11.43 8.27L11.43 8.27L11.43 8.27Q12.30 7.48 12.97 8.43L12.97 8.43L14.21 7.29L14.21 7.29Q13.43 6.25 12.80 6.49L12.80 6.49L12.80 6.49Q12.17 6.72 11.46 7.62L11.46 7.62L11.46 7.62Q11.52 6.77 10.99 6.42L10.99 6.42ZM17.25 6.60L17.25 6.60L17.25 6.60Q16.19 6.43 15.26 7.26L15.26 7.26L15.26 7.26Q14.33 8.09 14.07 9.20L14.07 9.20L14.07 9.20Q13.81 10.31 14.23 11.26L14.23 11.26L14.23 11.26Q14.65 12.22 15.79 12.62L15.79 12.62L15.79 12.62Q16.72 12.93 17.73 12.18L17.73 12.18L17.73 12.18Q18.73 11.43 19.04 10.77L19.04 10.77L18.84 10.61L18.84 10.61Q17.46 11.56 16.64 11.24L16.64 11.24L16.64 11.24Q15.83 10.92 15.68 10.51L15.68 10.51L17.17 9.54L17.17 9.54Q18.61 8.65 18.46 7.70L18.46 7.70L18.46 7.70Q18.32 6.76 17.25 6.60ZM15.17 8.64L15.17 8.64L15.17 8.64Q15.15 8.14 15.52 7.78L15.52 7.78L15.52 7.78Q15.89 7.41 16.50 7.78L16.50 7.78L16.50 7.78Q17.11 8.15 17.01 8.76L17.01 8.76L17.01 8.76Q16.92 9.37 15.48 10.14L15.48 10.14L15.48 10.14Q15.32 9.80 15.25 9.47L15.25 9.47L15.25 9.47Q15.18 9.14 15.17 8.64ZM20.63 3.05L19.46 3.99L19.46 3.99Q19.63 4.34 19.65 4.93L19.65 4.93L19.65 4.93Q19.63 11.40 19.75 11.88L19.75 11.88L19.75 11.88Q19.87 12.37 20.23 12.81L20.23 12.81L21.68 11.46L21.68 11.29L21.68 11.29Q21.23 11.40 21.10 10.78L21.10 10.78L21.10 10.78Q20.98 10.17 21.05 8.27L21.05 8.27L21.05 8.27Q22.06 7.50 22.66 7.73L22.66 7.73L22.66 7.73Q23.27 7.96 23.26 9.39L23.26 9.39L23.26 9.39Q23.23 11.44 23.28 11.93L23.28 11.93L23.28 11.93Q23.32 12.42 23.86 12.78L23.86 12.78L25.25 11.53L25.25 11.35L25.25 11.35Q24.90 11.46 24.78 10.83L24.78 10.83L24.78 10.83Q24.66 10.20 24.73 8.76L24.73 8.76L24.73 8.76Q24.78 7.88 24.59 7.35L24.59 7.35L24.59 7.35Q24.40 6.82 23.78 6.58L23.78 6.58L23.78 6.58Q23.15 6.33 22.62 6.59L22.62 6.59L22.62 6.59Q22.09 6.85 21.74 7.14L21.74 7.14L21.74 7.14Q21.40 7.42 21.08 7.62L21.08 7.62L21.05 3.91L21.05 3.91Q20.97 3.32 20.63 3.05L20.63 3.05ZM26.84 3.68L25.48 4.86L25.48 4.86Q26.11 5.30 26.44 5.91L26.44 5.91L26.44 5.91Q27.59 5.15 27.73 4.96L27.73 4.96L27.73 4.96Q27.87 4.76 27.66 4.31L27.66 4.31L27.66 4.31Q27.45 3.86 26.84 3.68L26.84 3.68ZM25.69 7.76L25.69 7.76Q26.27 7.43 26.07 9.23L26.07 9.23L26.07 9.23Q26.04 11.37 26.09 11.88L26.09 11.88L26.09 11.88Q26.13 12.39 26.69 12.72L26.69 12.72L28.05 11.45L28.06 11.27L28.06 11.27Q27.69 11.29 27.60 10.76L27.60 10.76L27.60 10.76Q27.51 10.23 27.55 8.94L27.55 8.94L27.55 8.94Q27.59 7.65 27.57 7.25L27.57 7.25L27.57 7.25Q27.56 6.85 27.20 6.45L27.20 6.45L25.58 7.57L25.69 7.76ZM31.25 7.64L31.25 7.64L31.38 7.79L31.38 7.79Q32.18 7.18 32.84 8.09L32.84 8.09L32.84 8.09Q33.50 9.00 33.46 9.94L33.46 9.94L33.46 9.94Q33.42 10.88 32.82 11.44L32.82 11.44L32.82 11.44Q32.24 11.50 29.96 6.84L29.96 6.84L29.96 6.84Q29.80 6.43 29.42 6.68L29.42 6.68L28.10 7.96L28.16 8.08L28.16 8.08Q28.55 7.77 28.94 8.43L28.94 8.43L30.99 12.24L30.99 12.24Q31.58 12.98 32.17 12.54L32.17 12.54L32.17 12.54Q32.76 12.09 33.26 11.52L33.26 11.52L33.26 11.52Q33.76 10.94 34.43 9.86L34.43 9.86L34.43 9.86Q35.10 8.78 34.54 7.68L34.54 7.68L34.54 7.68Q33.99 6.59 33.17 6.31L33.17 6.31L33.17 6.31Q32.35 6.03 31.25 7.64ZM38.30 6.60L38.30 6.60L38.30 6.60Q37.24 6.43 36.31 7.26L36.31 7.26L36.31 7.26Q35.38 8.09 35.12 9.20L35.12 9.20L35.12 9.20Q34.86 10.31 35.28 11.26L35.28 11.26L35.28 11.26Q35.70 12.22 36.84 12.62L36.84 12.62L36.84 12.62Q37.77 12.93 38.77 12.18L38.77 12.18L38.77 12.18Q39.78 11.43 40.09 10.77L40.09 10.77L39.89 10.61L39.89 10.61Q38.51 11.56 37.69 11.24L37.69 11.24L37.69 11.24Q36.87 10.92 36.73 10.51L36.73 10.51L38.21 9.54L38.21 9.54Q39.66 8.65 39.51 7.70L39.51 7.70L39.51 7.70Q39.37 6.76 38.30 6.60ZM36.21 8.64L36.21 8.64L36.21 8.64Q36.20 8.14 36.57 7.78L36.57 7.78L36.57 7.78Q36.94 7.41 37.55 7.78L37.55 7.78L37.55 7.78Q38.16 8.15 38.06 8.76L38.06 8.76L38.06 8.76Q37.97 9.37 36.52 10.14L36.52 10.14L36.52 10.14Q36.37 9.80 36.30 9.47L36.30 9.47L36.30 9.47Q36.23 9.14 36.21 8.64Z"></path></g><defs data-v-fde0c5aa=""><linearGradient data-v-fde0c5aa="" gradientTransform="rotate(25)" id="c69eecc8-af68-4586-ae5d-3afe861ab3b9" x1="0%" y1="0%" x2="100%" y2="0%"><stop data-v-fde0c5aa="" offset="0%" stop-color="#30092A" stop-opacity="1"></stop><stop data-v-fde0c5aa="" offset="100%" stop-color="#CB3C61" stop-opacity="1"></stop></linearGradient></defs><g data-v-fde0c5aa="" id="4cf47ffc-4944-4418-b993-e4ed3161b765" stroke="none" fill="url(#c69eecc8-af68-4586-ae5d-3afe861ab3b9)" transform="matrix(1.7398952789013729,0,0,1.7398952789013729,40,122.16167553757803)"><path d="M9.663 12.988L12.675 16l-6.338 6.337 3.326 3.326L16 19.325l3.012 3.012-6.337 6.338L16 32l6.337-6.337 3.326-3.326L32 16l-3.325-3.325-6.338 6.337L19.325 16l6.338-6.337-3.326-3.326L16 12.675l-3.012-3.012 6.337-6.338L16 0 9.663 6.337 6.337 9.663 0 16l3.325 3.325z"></path></g><!----></svg>