<svg xmlns="http://www.w3.org/2000/svg" width="24" height="24" viewBox="0 0 24 24" fill="none">
<path fill-rule="evenodd" clip-rule="evenodd" d="M17 7C17 4.23858 14.7614 2 12 2C9.23858 2 7 4.23858 7 7V9H5.5C4.67157 9 4 9.67157 4 10.5V20.5C4 21.3284 4.67157 22 5.5 22H18.5C19.3284 22 20 21.3284 20 20.5V10.5C20 9.67157 19.3284 9 18.5 9H17V7ZM12 17C12.8284 17 13.5 16.3284 13.5 15.5C13.5 14.6716 12.8284 14 12 14C11.1716 14 10.5 14.6716 10.5 15.5C10.5 16.3284 11.1716 17 12 17ZM9 9H15V7C15 5.34315 13.6569 4 12 4C10.3431 4 9 5.34315 9 7V9Z" fill="#6F6F6F"/>
</svg>