<svg xmlns="http://www.w3.org/2000/svg" width="24" height="24" viewBox="0 0 24 24" fill="none">
<path fill-rule="evenodd" clip-rule="evenodd" d="M16.8195 8C16.8195 10.7614 14.581 13 11.8195 13C9.05812 13 6.81954 10.7614 6.81954 8C6.81954 5.23858 9.05812 3 11.8195 3C14.581 3 16.8195 5.23858 16.8195 8ZM15.0885 13.3058C14.3642 14.3308 13.17 15 11.8195 15C10.4691 15 9.27492 14.3308 8.55063 13.3058C6.87132 13.6015 5.36842 14.0569 4.32338 14.4211C3.37193 14.7527 2.71989 15.5979 2.55424 16.5918L2.01361 19.8356C1.91202 20.4451 2.38206 21 3 21H5.81954V18.5C5.81954 18.2239 6.0434 18 6.31954 18C6.59569 18 6.81954 18.2239 6.81954 18.5V21H16.8195V18.5C16.8195 18.2239 17.0434 18 17.3195 18C17.5957 18 17.8195 18.2239 17.8195 18.5V21H20.6391C21.257 21 21.7271 20.4451 21.6255 19.8356L21.0848 16.5918C20.9192 15.5979 20.2672 14.7527 19.3157 14.4211C18.2707 14.0569 16.7678 13.6015 15.0885 13.3058Z" fill="#6F6F6F"/>
</svg>