<svg xmlns="http://www.w3.org/2000/svg" width="18" height="18" viewBox="0 0 18 18" fill="none">
<path d="M8.99199 0.666504C4.39199 0.666504 0.666992 4.39984 0.666992 8.99984C0.666992 13.5998 4.39199 17.3332 8.99199 17.3332C13.6003 17.3332 17.3337 13.5998 17.3337 8.99984C17.3337 4.39984 13.6003 0.666504 8.99199 0.666504ZM14.767 5.6665H12.3087C12.042 4.62484 11.6587 3.62484 11.1587 2.69984C12.692 3.22484 13.967 4.2915 14.767 5.6665ZM9.00033 2.3665C9.69199 3.3665 10.2337 4.47484 10.592 5.6665H7.40866C7.76699 4.47484 8.30866 3.3665 9.00033 2.3665ZM2.55033 10.6665C2.41699 10.1332 2.33366 9.57484 2.33366 8.99984C2.33366 8.42484 2.41699 7.8665 2.55033 7.33317H5.36699C5.30033 7.88317 5.25033 8.43317 5.25033 8.99984C5.25033 9.5665 5.30033 10.1165 5.36699 10.6665H2.55033ZM3.23366 12.3332H5.69199C5.95866 13.3748 6.34199 14.3748 6.84199 15.2998C5.30866 14.7748 4.03366 13.7165 3.23366 12.3332ZM5.69199 5.6665H3.23366C4.03366 4.28317 5.30866 3.22484 6.84199 2.69984C6.34199 3.62484 5.95866 4.62484 5.69199 5.6665ZM9.00033 15.6332C8.30866 14.6332 7.76699 13.5248 7.40866 12.3332H10.592C10.2337 13.5248 9.69199 14.6332 9.00033 15.6332ZM10.9503 10.6665H7.05033C6.97533 10.1165 6.91699 9.5665 6.91699 8.99984C6.91699 8.43317 6.97533 7.87484 7.05033 7.33317H10.9503C11.0253 7.87484 11.0837 8.43317 11.0837 8.99984C11.0837 9.5665 11.0253 10.1165 10.9503 10.6665ZM11.1587 15.2998C11.6587 14.3748 12.042 13.3748 12.3087 12.3332H14.767C13.967 13.7082 12.692 14.7748 11.1587 15.2998ZM12.6337 10.6665C12.7003 10.1165 12.7503 9.5665 12.7503 8.99984C12.7503 8.43317 12.7003 7.88317 12.6337 7.33317H15.4503C15.5837 7.8665 15.667 8.42484 15.667 8.99984C15.667 9.57484 15.5837 10.1332 15.4503 10.6665H12.6337Z" fill="#6F6F6F"/>
</svg>